<svg  xmlns="http://www.w3.org/2000/svg" width="560" height="421" viewBox="0 0 560 421" fill="none">
<ellipse cx="76.5077" cy="287.655" rx="51.6638" ry="18.56" transform="rotate(12.9368 76.5077 287.655)" fill="#FFA500"/>
<ellipse cx="193.5" cy="339" rx="65.5" ry="22" fill="#D9D9D9"/>
<ellipse cx="395.5" cy="335.5" rx="58.5" ry="19.5" fill="#D9D9D9"/>
<circle cx="396" cy="253" r="86" fill="#FFD700"/>
<ellipse cx="394.5" cy="299" rx="13" ry="8.5" transform="rotate(-90 394.5 299)" fill="#DC143C"/>
<circle cx="194" cy="261" r="86" fill="#FFA500"/>
<path d="M133.658 172.1L157.635 185.571L133.979 199.6L133.658 172.1Z" fill="#FFA500"/>
<path d="M136.36 176.551L152.793 185.784L136.58 195.398L136.36 176.551Z" fill="black"/>
<path d="M212.859 159.118L222.245 182.014L195.418 176.672L212.859 159.118Z" fill="#FFA500"/>
<path d="M211.396 164.174L218.366 178.546L199.453 174.78L211.396 164.174Z" fill="black"/>
<circle cx="185.5" cy="244.5" r="33.5" fill="white"/>
<circle cx="227.5" cy="244.5" r="33.5" fill="white"/>
<circle cx="234" cy="245" r="6" fill="black"/>
<circle cx="370.5" cy="244.5" r="33.5" fill="white"/>
<circle cx="413.5" cy="244.5" r="33.5" fill="white"/>
<circle cx="407" cy="239" r="6" fill="black"/>
<circle cx="365" cy="239" r="6" fill="black"/>
<circle cx="192" cy="245" r="6" fill="black"/>
<ellipse cx="196.5" cy="303" rx="13" ry="8.5" fill="#DC143C"/>
<circle cx="207.5" cy="275.5" r="7.5" fill="black"/>
<path d="M27.5072 275.017L54.315 268.874L46.2311 295.162L27.5072 275.017Z" fill="white"/>
</svg>
